# xmcd
#
# Track frame offsets: 
#        150
#        12107
#        24145
#        37594
#        49429
#        62364
#        75026
#        88961
#        103244
#        117541
#        132086
#        147291
#        161179
#        174696
#        188574
#        202264
#        216286
#        232109
#        245296
#        260201
#        273674
#        288449
#        302524
#        318399
#        332514
#
# Disc length: 4639 seconds
#
# Revision: 0
# Processed by: cddbd v1.5.2PL0 Copyright (c) Steve Scherf et al.
# Submitted via: ExactAudioCopy v0.95b2
#
DISCID=68121d19
DTITLE=Louis ARMSTRONG - New Orleans In Chicago (1927)
DYEAR=1900
DGENRE=Blues
TTITLE0=Easy Comes, Easy Co Blues
TTITLE1=Blues Stampede
TTITLE2=I'm Goin' Huntin'
TTITLE3=If You Wanna Be My Sugar Papa
TTITLE4=Weary Blues
TTITLE5=New Orleans Stomp
TTITLE6=Wild Man Blues
TTITLE7=Melancholy
TTITLE8=Willie The Weeper
TTITLE9=Wild Man Blues
TTITLE10=Chicago Breakdown
TTITLE11=Alligator Crawl
TTITLE12=Potato Head Blues
TTITLE13=Melancholy Blues
TTITLE14=Weary Blues
TTITLE15=Twelfth Street Rag
TTITLE16=Keyhole Blues
TTITLE17=S.O.L. Blues
TTITLE18=Gully Low Blues
TTITLE19=That's When I'll Come Back To You
TTITLE20=Put 'em Down Blues
TTITLE21=Ory's Creolz Trombone
TTITLE22=The Last Time
TTITLE23=Struttin' With Some Barbecue
TTITLE24=Got No Blues
EXTD=
EXTT0=
EXTT1=
EXTT2=
EXTT3=
EXTT4=
EXTT5=
EXTT6=
EXTT7=
EXTT8=
EXTT9=
EXTT10=
EXTT11=
EXTT12=
EXTT13=
EXTT14=
EXTT15=
EXTT16=
EXTT17=
EXTT18=
EXTT19=
EXTT20=
EXTT21=
EXTT22=
EXTT23=
EXTT24=
PLAYORDER=
